# xmcd
#
# Track frame offsets:
#	150
#	11567
#	24139
#	35374
#	44544
#	54805
#	65763
#	77808
#	88550
#	99222
#	108703
#	119705
#	128778
#	141172
#	155115
#	170599
#	183532
#	194087
#	211681
#	226055
#	239433
#	255069
#	265938
#	280038
#	291690
#	303043
#	327342
#
# Disc length: 4503 seconds
#
# Revision: 1
# Processed by: cddbd v1.5.2PL0 Copyright (c) Steve Scherf et al.
# Submitted via: audiograbber 1.83.01
#
DISCID=7e11951b
DTITLE=Various Artist - Blues Kings of Baton Rouge (1954-71)(Bear Family)[CD2]
DYEAR=2019
DGENRE=Blues
TTITLE0=Slim Harpo - Rainin' In My Heart
TTITLE1=Lightning Slim - I'm Tired Waitin' Baby
TTITLE2=Tabby Thomas - Hoodoo Party
TTITLE3=Lonesome Sundown - My Home Ain't Here
TTITLE4=Jimmy Anderson - Naggin'
TTITLE5=Silas Hogan - Trouble at Home Blues
TTITLE6=Lightnin' Slim - Winter Time Blues
TTITLE7=Jimmy Anderson - Goin' Thru the Park
TTITLE8=Lightnin' Slim - I'm Evil
TTITLE9=The Nitehawks (Bo Melvin) - Boogie Chillun
TTITLE10=Whispering Smith - Mean Woman Blues
TTITLE11=Silas Hogan - I'm Goin' in the Valley
TTITLE12=Silas Hogan - Dark Clouds Rollin'
TTITLE13=Lightnin' Slim - Can't Live This Life No More
TTITLE14=Isaiah Chattman - Cold in Hand
TTITLE15=Slim Harpo - Baby Scratch My Back
TTITLE16=Slim Harpo - I'm Gonna Miss You (Like the Devil)
TTITLE17=Silas Hogan - Hoo Doo Blues
TTITLE18=Henry Gray - Showers of Rain
TTITLE19=Arthur Kelley - Number Ten at the Station
TTITLE20=Arthur Kelley - How Can I Stay
TTITLE21=Moses Smith - Baton Rouge Breakdown\\
TTITLE22=Silas Hogan - Honey Bee Blues
TTITLE23=Silas Hogan - I Didn't Tell Her to Leave
TTITLE24=Slim Harpo - The Music's Hot
TTITLE25=Robert Pete Williams - Goodbye Slim Harpo
TTITLE26=Slim Harpo - Talking Blues (aka Blues Hangover)
EXTD=
EXTT0=
EXTT1=
EXTT2=
EXTT3=
EXTT4=
EXTT5=
EXTT6=
EXTT7=
EXTT8=
EXTT9=
EXTT10=
EXTT11=
EXTT12=
EXTT13=
EXTT14=
EXTT15=
EXTT16=
EXTT17=
EXTT18=
EXTT19=
EXTT20=
EXTT21=
EXTT22=
EXTT23=
EXTT24=
EXTT25=
EXTT26=
PLAYORDER=
